<?xml version="1.0" encoding="UTF-8" standalone="no"?>
<!DOCTYPE svg PUBLIC "-//W3C//DTD SVG 1.1//EN"
 "http://www.w3.org/Graphics/SVG/1.1/DTD/svg11.dtd">
<!-- Generated by graphviz version 2.40.1 (20161225.0304)
 -->
<!-- Title: %3 Pages: 1 -->
<svg width="532pt" height="198pt"
 viewBox="0.00 0.00 532.00 198.00" xmlns="http://www.w3.org/2000/svg" xmlns:xlink="http://www.w3.org/1999/xlink">
<g id="graph0" class="graph" transform="scale(1 1) rotate(0) translate(4 194)">
<title>%3</title>
<polygon fill="#ffffff" stroke="transparent" points="-4,4 -4,-194 528,-194 528,4 -4,4"/>
<!-- n99 -->
<g id="node1" class="node">
<title>n99</title>
<path fill="none" stroke="#000000" d="M12,-.5C12,-.5 270,-.5 270,-.5 276,-.5 282,-6.5 282,-12.5 282,-12.5 282,-64.5 282,-64.5 282,-70.5 276,-76.5 270,-76.5 270,-76.5 12,-76.5 12,-76.5 6,-76.5 0,-70.5 0,-64.5 0,-64.5 0,-12.5 0,-12.5 0,-6.5 6,-.5 12,-.5"/>
<text text-anchor="middle" x="141" y="-61.3" font-family="Times,serif" font-size="14.00" fill="#000000">Movie</text>
<polyline fill="none" stroke="#000000" points="0,-53.5 282,-53.5 "/>
<text text-anchor="middle" x="141" y="-38.3" font-family="Times,serif" font-size="14.00" fill="#000000">tagline: A story of love, lava and burning desire.</text>
<text text-anchor="middle" x="141" y="-23.3" font-family="Times,serif" font-size="14.00" fill="#000000">title: Joe Versus the Volcano</text>
<text text-anchor="middle" x="141" y="-8.3" font-family="Times,serif" font-size="14.00" fill="#000000">released: 1990</text>
</g>
<!-- n165 -->
<g id="node2" class="node">
<title>n165</title>
<path fill="none" stroke="#000000" d="M314,-.5C314,-.5 512,-.5 512,-.5 518,-.5 524,-6.5 524,-12.5 524,-12.5 524,-64.5 524,-64.5 524,-70.5 518,-76.5 512,-76.5 512,-76.5 314,-76.5 314,-76.5 308,-76.5 302,-70.5 302,-64.5 302,-64.5 302,-12.5 302,-12.5 302,-6.5 308,-.5 314,-.5"/>
<text text-anchor="middle" x="413" y="-61.3" font-family="Times,serif" font-size="14.00" fill="#000000">Movie</text>
<polyline fill="none" stroke="#000000" points="302,-53.5 524,-53.5 "/>
<text text-anchor="middle" x="413" y="-38.3" font-family="Times,serif" font-size="14.00" fill="#000000">tagline: Houston, we have a problem.</text>
<text text-anchor="middle" x="413" y="-23.3" font-family="Times,serif" font-size="14.00" fill="#000000">title: Apollo 13</text>
<text text-anchor="middle" x="413" y="-8.3" font-family="Times,serif" font-size="14.00" fill="#000000">released: 1995</text>
</g>
<!-- n55 -->
<g id="node3" class="node">
<title>n55</title>
<path fill="none" stroke="#000000" d="M96,-128.5C96,-128.5 184,-128.5 184,-128.5 190,-128.5 196,-134.5 196,-140.5 196,-140.5 196,-177.5 196,-177.5 196,-183.5 190,-189.5 184,-189.5 184,-189.5 96,-189.5 96,-189.5 90,-189.5 84,-183.5 84,-177.5 84,-177.5 84,-140.5 84,-140.5 84,-134.5 90,-128.5 96,-128.5"/>
<text text-anchor="middle" x="140" y="-174.3" font-family="Times,serif" font-size="14.00" fill="#000000">Person</text>
<polyline fill="none" stroke="#000000" points="84,-166.5 196,-166.5 "/>
<text text-anchor="middle" x="140" y="-151.3" font-family="Times,serif" font-size="14.00" fill="#000000">born: 1961</text>
<text text-anchor="middle" x="140" y="-136.3" font-family="Times,serif" font-size="14.00" fill="#000000">name: Meg Ryan</text>
</g>
<!-- n55&#45;&gt;n99 -->
<g id="edge1" class="edge">
<title>n55&#45;&gt;n99</title>
<path fill="none" stroke="#000000" d="M140.2549,-128.281C140.3582,-115.8344 140.4801,-101.154 140.5949,-87.3101"/>
<polygon fill="#000000" stroke="#000000" points="144.0978,-86.9663 140.681,-76.9375 137.0981,-86.9081 144.0978,-86.9663"/>
<text text-anchor="middle" x="174.5" y="-98.8" font-family="Times,serif" font-size="14.00" fill="#000000">ACTED_IN</text>
</g>
<!-- n40 -->
<g id="node4" class="node">
<title>n40</title>
<path fill="none" stroke="#000000" d="M363.5,-128.5C363.5,-128.5 464.5,-128.5 464.5,-128.5 470.5,-128.5 476.5,-134.5 476.5,-140.5 476.5,-140.5 476.5,-177.5 476.5,-177.5 476.5,-183.5 470.5,-189.5 464.5,-189.5 464.5,-189.5 363.5,-189.5 363.5,-189.5 357.5,-189.5 351.5,-183.5 351.5,-177.5 351.5,-177.5 351.5,-140.5 351.5,-140.5 351.5,-134.5 357.5,-128.5 363.5,-128.5"/>
<text text-anchor="middle" x="414" y="-174.3" font-family="Times,serif" font-size="14.00" fill="#000000">Person</text>
<polyline fill="none" stroke="#000000" points="351.5,-166.5 476.5,-166.5 "/>
<text text-anchor="middle" x="414" y="-151.3" font-family="Times,serif" font-size="14.00" fill="#000000">born: 1958</text>
<text text-anchor="middle" x="414" y="-136.3" font-family="Times,serif" font-size="14.00" fill="#000000">name: Kevin Bacon</text>
</g>
<!-- n40&#45;&gt;n165 -->
<g id="edge3" class="edge">
<title>n40&#45;&gt;n165</title>
<path fill="none" stroke="#000000" d="M413.7451,-128.281C413.6418,-115.8344 413.5199,-101.154 413.4051,-87.3101"/>
<polygon fill="#000000" stroke="#000000" points="416.9019,-86.9081 413.319,-76.9375 409.9022,-86.9663 416.9019,-86.9081"/>
<text text-anchor="middle" x="446.5" y="-98.8" font-family="Times,serif" font-size="14.00" fill="#000000">ACTED_IN</text>
</g>
<!-- n92 -->
<g id="node5" class="node">
<title>n92</title>
<path fill="none" stroke="#000000" d="M226.5,-128.5C226.5,-128.5 321.5,-128.5 321.5,-128.5 327.5,-128.5 333.5,-134.5 333.5,-140.5 333.5,-140.5 333.5,-177.5 333.5,-177.5 333.5,-183.5 327.5,-189.5 321.5,-189.5 321.5,-189.5 226.5,-189.5 226.5,-189.5 220.5,-189.5 214.5,-183.5 214.5,-177.5 214.5,-177.5 214.5,-140.5 214.5,-140.5 214.5,-134.5 220.5,-128.5 226.5,-128.5"/>
<text text-anchor="middle" x="274" y="-174.3" font-family="Times,serif" font-size="14.00" fill="#000000">Person</text>
<polyline fill="none" stroke="#000000" points="214.5,-166.5 333.5,-166.5 "/>
<text text-anchor="middle" x="274" y="-151.3" font-family="Times,serif" font-size="14.00" fill="#000000">born: 1956</text>
<text text-anchor="middle" x="274" y="-136.3" font-family="Times,serif" font-size="14.00" fill="#000000">name: Tom Hanks</text>
</g>
<!-- n92&#45;&gt;n99 -->
<g id="edge4" class="edge">
<title>n92&#45;&gt;n99</title>
<path fill="none" stroke="#000000" d="M243.7619,-128.1803C232.9806,-117.4737 220.6258,-105.5191 209,-95 204.6982,-91.1076 200.1843,-87.133 195.6148,-83.1853"/>
<polygon fill="#000000" stroke="#000000" points="197.774,-80.4265 187.8997,-76.5862 193.224,-85.746 197.774,-80.4265"/>
<text text-anchor="middle" x="257.5" y="-98.8" font-family="Times,serif" font-size="14.00" fill="#000000">ACTED_IN</text>
</g>
<!-- n92&#45;&gt;n165 -->
<g id="edge2" class="edge">
<title>n92&#45;&gt;n165</title>
<path fill="none" stroke="#000000" d="M305.3249,-128.4895C316.6869,-117.6991 329.7439,-105.6121 342,-95 346.5013,-91.1025 351.2211,-87.1243 355.9968,-83.1741"/>
<polygon fill="#000000" stroke="#000000" points="358.5392,-85.6159 364.058,-76.5719 354.1038,-80.2004 358.5392,-85.6159"/>
<text text-anchor="middle" x="375.5" y="-98.8" font-family="Times,serif" font-size="14.00" fill="#000000">ACTED_IN</text>
</g>
</g>
</svg>
