<?xml version="1.0" encoding="UTF-8" standalone="no"?>
<!DOCTYPE svg PUBLIC "-//W3C//DTD SVG 1.1//EN"
 "http://www.w3.org/Graphics/SVG/1.1/DTD/svg11.dtd">
<!-- Generated by graphviz version 2.40.1 (20161225.0304)
 -->
<!-- Title: %3 Pages: 1 -->
<svg width="1040pt" height="198pt"
 viewBox="0.00 0.00 1040.00 198.00" xmlns="http://www.w3.org/2000/svg" xmlns:xlink="http://www.w3.org/1999/xlink">
<g id="graph0" class="graph" transform="scale(1 1) rotate(0) translate(4 194)">
<title>%3</title>
<polygon fill="#ffffff" stroke="transparent" points="-4,4 -4,-194 1036,-194 1036,4 -4,4"/>
<!-- n98 -->
<g id="node1" class="node">
<title>n98</title>
<path fill="none" stroke="#000000" d="M225.5,-128.5C225.5,-128.5 320.5,-128.5 320.5,-128.5 326.5,-128.5 332.5,-134.5 332.5,-140.5 332.5,-140.5 332.5,-177.5 332.5,-177.5 332.5,-183.5 326.5,-189.5 320.5,-189.5 320.5,-189.5 225.5,-189.5 225.5,-189.5 219.5,-189.5 213.5,-183.5 213.5,-177.5 213.5,-177.5 213.5,-140.5 213.5,-140.5 213.5,-134.5 219.5,-128.5 225.5,-128.5"/>
<text text-anchor="middle" x="273" y="-174.3" font-family="Times,serif" font-size="14.00" fill="#000000">Person</text>
<polyline fill="none" stroke="#000000" points="213.5,-166.5 332.5,-166.5 "/>
<text text-anchor="middle" x="273" y="-151.3" font-family="Times,serif" font-size="14.00" fill="#000000">born: 1956</text>
<text text-anchor="middle" x="273" y="-136.3" font-family="Times,serif" font-size="14.00" fill="#000000">name: Tom Hanks</text>
</g>
<!-- n105 -->
<g id="node2" class="node">
<title>n105</title>
<path fill="none" stroke="#000000" d="M12,-.5C12,-.5 270,-.5 270,-.5 276,-.5 282,-6.5 282,-12.5 282,-12.5 282,-64.5 282,-64.5 282,-70.5 276,-76.5 270,-76.5 270,-76.5 12,-76.5 12,-76.5 6,-76.5 0,-70.5 0,-64.5 0,-64.5 0,-12.5 0,-12.5 0,-6.5 6,-.5 12,-.5"/>
<text text-anchor="middle" x="141" y="-61.3" font-family="Times,serif" font-size="14.00" fill="#000000">Movie</text>
<polyline fill="none" stroke="#000000" points="0,-53.5 282,-53.5 "/>
<text text-anchor="middle" x="141" y="-38.3" font-family="Times,serif" font-size="14.00" fill="#000000">tagline: A story of love, lava and burning desire.</text>
<text text-anchor="middle" x="141" y="-23.3" font-family="Times,serif" font-size="14.00" fill="#000000">title: Joe Versus the Volcano</text>
<text text-anchor="middle" x="141" y="-8.3" font-family="Times,serif" font-size="14.00" fill="#000000">released: 1990</text>
</g>
<!-- n98&#45;&gt;n105 -->
<g id="edge3" class="edge">
<title>n98&#45;&gt;n105</title>
<path fill="none" stroke="#000000" d="M242.7185,-128.228C231.9334,-117.5256 219.5873,-105.5615 208,-95 203.7496,-91.1259 199.2937,-87.1641 194.7858,-83.225"/>
<polygon fill="#000000" stroke="#000000" points="197.028,-80.5368 187.1771,-76.6367 192.4458,-85.8287 197.028,-80.5368"/>
<text text-anchor="middle" x="256.5" y="-98.8" font-family="Times,serif" font-size="14.00" fill="#000000">ACTED_IN</text>
</g>
<!-- n171 -->
<g id="node3" class="node">
<title>n171</title>
<path fill="none" stroke="#000000" d="M313,-.5C313,-.5 511,-.5 511,-.5 517,-.5 523,-6.5 523,-12.5 523,-12.5 523,-64.5 523,-64.5 523,-70.5 517,-76.5 511,-76.5 511,-76.5 313,-76.5 313,-76.5 307,-76.5 301,-70.5 301,-64.5 301,-64.5 301,-12.5 301,-12.5 301,-6.5 307,-.5 313,-.5"/>
<text text-anchor="middle" x="412" y="-61.3" font-family="Times,serif" font-size="14.00" fill="#000000">Movie</text>
<polyline fill="none" stroke="#000000" points="301,-53.5 523,-53.5 "/>
<text text-anchor="middle" x="412" y="-38.3" font-family="Times,serif" font-size="14.00" fill="#000000">tagline: Houston, we have a problem.</text>
<text text-anchor="middle" x="412" y="-23.3" font-family="Times,serif" font-size="14.00" fill="#000000">title: Apollo 13</text>
<text text-anchor="middle" x="412" y="-8.3" font-family="Times,serif" font-size="14.00" fill="#000000">released: 1995</text>
</g>
<!-- n98&#45;&gt;n171 -->
<g id="edge1" class="edge">
<title>n98&#45;&gt;n171</title>
<path fill="none" stroke="#000000" d="M305.224,-128.2557C316.6796,-117.5556 329.7696,-105.586 342,-95 346.4633,-91.1368 351.1345,-87.1828 355.855,-83.2489"/>
<polygon fill="#000000" stroke="#000000" points="358.3398,-85.7359 363.8177,-76.6671 353.88,-80.3405 358.3398,-85.7359"/>
<text text-anchor="middle" x="375.5" y="-98.8" font-family="Times,serif" font-size="14.00" fill="#000000">ACTED_IN</text>
</g>
<!-- n61 -->
<g id="node4" class="node">
<title>n61</title>
<path fill="none" stroke="#000000" d="M95,-128.5C95,-128.5 183,-128.5 183,-128.5 189,-128.5 195,-134.5 195,-140.5 195,-140.5 195,-177.5 195,-177.5 195,-183.5 189,-189.5 183,-189.5 183,-189.5 95,-189.5 95,-189.5 89,-189.5 83,-183.5 83,-177.5 83,-177.5 83,-140.5 83,-140.5 83,-134.5 89,-128.5 95,-128.5"/>
<text text-anchor="middle" x="139" y="-174.3" font-family="Times,serif" font-size="14.00" fill="#000000">Person</text>
<polyline fill="none" stroke="#000000" points="83,-166.5 195,-166.5 "/>
<text text-anchor="middle" x="139" y="-151.3" font-family="Times,serif" font-size="14.00" fill="#000000">born: 1961</text>
<text text-anchor="middle" x="139" y="-136.3" font-family="Times,serif" font-size="14.00" fill="#000000">name: Meg Ryan</text>
</g>
<!-- n61&#45;&gt;n105 -->
<g id="edge4" class="edge">
<title>n61&#45;&gt;n105</title>
<path fill="none" stroke="#000000" d="M139.5099,-128.281C139.7164,-115.8344 139.9601,-101.154 140.1899,-87.3101"/>
<polygon fill="#000000" stroke="#000000" points="143.6955,-86.9943 140.362,-76.9375 136.6965,-86.878 143.6955,-86.9943"/>
<text text-anchor="middle" x="174.5" y="-98.8" font-family="Times,serif" font-size="14.00" fill="#000000">ACTED_IN</text>
</g>
<!-- n46 -->
<g id="node5" class="node">
<title>n46</title>
<path fill="none" stroke="#000000" d="M362.5,-128.5C362.5,-128.5 463.5,-128.5 463.5,-128.5 469.5,-128.5 475.5,-134.5 475.5,-140.5 475.5,-140.5 475.5,-177.5 475.5,-177.5 475.5,-183.5 469.5,-189.5 463.5,-189.5 463.5,-189.5 362.5,-189.5 362.5,-189.5 356.5,-189.5 350.5,-183.5 350.5,-177.5 350.5,-177.5 350.5,-140.5 350.5,-140.5 350.5,-134.5 356.5,-128.5 362.5,-128.5"/>
<text text-anchor="middle" x="413" y="-174.3" font-family="Times,serif" font-size="14.00" fill="#000000">Person</text>
<polyline fill="none" stroke="#000000" points="350.5,-166.5 475.5,-166.5 "/>
<text text-anchor="middle" x="413" y="-151.3" font-family="Times,serif" font-size="14.00" fill="#000000">born: 1958</text>
<text text-anchor="middle" x="413" y="-136.3" font-family="Times,serif" font-size="14.00" fill="#000000">name: Kevin Bacon</text>
</g>
<!-- n46&#45;&gt;n171 -->
<g id="edge2" class="edge">
<title>n46&#45;&gt;n171</title>
<path fill="none" stroke="#000000" d="M412.7451,-128.281C412.6418,-115.8344 412.5199,-101.154 412.4051,-87.3101"/>
<polygon fill="#000000" stroke="#000000" points="415.9019,-86.9081 412.319,-76.9375 408.9022,-86.9663 415.9019,-86.9081"/>
<text text-anchor="middle" x="446.5" y="-98.8" font-family="Times,serif" font-size="14.00" fill="#000000">ACTED_IN</text>
</g>
<!-- n344 -->
<g id="node6" class="node">
<title>n344</title>
<path fill="none" stroke="#000000" d="M553,-.5C553,-.5 751,-.5 751,-.5 757,-.5 763,-6.5 763,-12.5 763,-12.5 763,-64.5 763,-64.5 763,-70.5 757,-76.5 751,-76.5 751,-76.5 553,-76.5 553,-76.5 547,-76.5 541,-70.5 541,-64.5 541,-64.5 541,-12.5 541,-12.5 541,-6.5 547,-.5 553,-.5"/>
<text text-anchor="middle" x="652" y="-61.3" font-family="Times,serif" font-size="14.00" fill="#000000">Movie</text>
<polyline fill="none" stroke="#000000" points="541,-53.5 763,-53.5 "/>
<text text-anchor="middle" x="652" y="-38.3" font-family="Times,serif" font-size="14.00" fill="#000000">tagline: Houston, we have a problem.</text>
<text text-anchor="middle" x="652" y="-23.3" font-family="Times,serif" font-size="14.00" fill="#000000">title: Apollo 13</text>
<text text-anchor="middle" x="652" y="-8.3" font-family="Times,serif" font-size="14.00" fill="#000000">released: 1995</text>
</g>
<!-- n234 -->
<g id="node7" class="node">
<title>n234</title>
<path fill="none" stroke="#000000" d="M875,-128.5C875,-128.5 963,-128.5 963,-128.5 969,-128.5 975,-134.5 975,-140.5 975,-140.5 975,-177.5 975,-177.5 975,-183.5 969,-189.5 963,-189.5 963,-189.5 875,-189.5 875,-189.5 869,-189.5 863,-183.5 863,-177.5 863,-177.5 863,-140.5 863,-140.5 863,-134.5 869,-128.5 875,-128.5"/>
<text text-anchor="middle" x="919" y="-174.3" font-family="Times,serif" font-size="14.00" fill="#000000">Person</text>
<polyline fill="none" stroke="#000000" points="863,-166.5 975,-166.5 "/>
<text text-anchor="middle" x="919" y="-151.3" font-family="Times,serif" font-size="14.00" fill="#000000">born: 1961</text>
<text text-anchor="middle" x="919" y="-136.3" font-family="Times,serif" font-size="14.00" fill="#000000">name: Meg Ryan</text>
</g>
<!-- n267 -->
<g id="node9" class="node">
<title>n267</title>
<path fill="none" stroke="#000000" d="M806,-.5C806,-.5 1020,-.5 1020,-.5 1026,-.5 1032,-6.5 1032,-12.5 1032,-12.5 1032,-64.5 1032,-64.5 1032,-70.5 1026,-76.5 1020,-76.5 1020,-76.5 806,-76.5 806,-76.5 800,-76.5 794,-70.5 794,-64.5 794,-64.5 794,-12.5 794,-12.5 794,-6.5 800,-.5 806,-.5"/>
<text text-anchor="middle" x="913" y="-61.3" font-family="Times,serif" font-size="14.00" fill="#000000">Movie</text>
<polyline fill="none" stroke="#000000" points="794,-53.5 1032,-53.5 "/>
<text text-anchor="middle" x="913" y="-38.3" font-family="Times,serif" font-size="14.00" fill="#000000">tagline: At odds in life... in love on&#45;line.</text>
<text text-anchor="middle" x="913" y="-23.3" font-family="Times,serif" font-size="14.00" fill="#000000">title: You&#39;ve Got Mail</text>
<text text-anchor="middle" x="913" y="-8.3" font-family="Times,serif" font-size="14.00" fill="#000000">released: 1998</text>
</g>
<!-- n234&#45;&gt;n267 -->
<g id="edge6" class="edge">
<title>n234&#45;&gt;n267</title>
<path fill="none" stroke="#000000" d="M917.4704,-128.281C916.8507,-115.8344 916.1197,-101.154 915.4304,-87.3101"/>
<polygon fill="#000000" stroke="#000000" points="918.907,-86.7511 914.9139,-76.9375 911.9156,-87.0992 918.907,-86.7511"/>
<text text-anchor="middle" x="950.5" y="-98.8" font-family="Times,serif" font-size="14.00" fill="#000000">ACTED_IN</text>
</g>
<!-- n219 -->
<g id="node8" class="node">
<title>n219</title>
<path fill="none" stroke="#000000" d="M594.5,-128.5C594.5,-128.5 695.5,-128.5 695.5,-128.5 701.5,-128.5 707.5,-134.5 707.5,-140.5 707.5,-140.5 707.5,-177.5 707.5,-177.5 707.5,-183.5 701.5,-189.5 695.5,-189.5 695.5,-189.5 594.5,-189.5 594.5,-189.5 588.5,-189.5 582.5,-183.5 582.5,-177.5 582.5,-177.5 582.5,-140.5 582.5,-140.5 582.5,-134.5 588.5,-128.5 594.5,-128.5"/>
<text text-anchor="middle" x="645" y="-174.3" font-family="Times,serif" font-size="14.00" fill="#000000">Person</text>
<polyline fill="none" stroke="#000000" points="582.5,-166.5 707.5,-166.5 "/>
<text text-anchor="middle" x="645" y="-151.3" font-family="Times,serif" font-size="14.00" fill="#000000">born: 1958</text>
<text text-anchor="middle" x="645" y="-136.3" font-family="Times,serif" font-size="14.00" fill="#000000">name: Kevin Bacon</text>
</g>
<!-- n219&#45;&gt;n344 -->
<g id="edge8" class="edge">
<title>n219&#45;&gt;n344</title>
<path fill="none" stroke="#000000" d="M646.2861,-128.3916C646.7702,-117.8114 647.3598,-105.882 648,-95 648.157,-92.3311 648.3258,-89.5919 648.502,-86.8273"/>
<polygon fill="#000000" stroke="#000000" points="651.9985,-86.9952 649.1655,-76.7861 645.0137,-86.5336 651.9985,-86.9952"/>
<text text-anchor="middle" x="681.5" y="-98.8" font-family="Times,serif" font-size="14.00" fill="#000000">ACTED_IN</text>
</g>
<!-- n271 -->
<g id="node10" class="node">
<title>n271</title>
<path fill="none" stroke="#000000" d="M737.5,-128.5C737.5,-128.5 832.5,-128.5 832.5,-128.5 838.5,-128.5 844.5,-134.5 844.5,-140.5 844.5,-140.5 844.5,-177.5 844.5,-177.5 844.5,-183.5 838.5,-189.5 832.5,-189.5 832.5,-189.5 737.5,-189.5 737.5,-189.5 731.5,-189.5 725.5,-183.5 725.5,-177.5 725.5,-177.5 725.5,-140.5 725.5,-140.5 725.5,-134.5 731.5,-128.5 737.5,-128.5"/>
<text text-anchor="middle" x="785" y="-174.3" font-family="Times,serif" font-size="14.00" fill="#000000">Person</text>
<polyline fill="none" stroke="#000000" points="725.5,-166.5 844.5,-166.5 "/>
<text text-anchor="middle" x="785" y="-151.3" font-family="Times,serif" font-size="14.00" fill="#000000">born: 1956</text>
<text text-anchor="middle" x="785" y="-136.3" font-family="Times,serif" font-size="14.00" fill="#000000">name: Tom Hanks</text>
</g>
<!-- n271&#45;&gt;n344 -->
<g id="edge7" class="edge">
<title>n271&#45;&gt;n344</title>
<path fill="none" stroke="#000000" d="M751.5901,-128.334C740.0235,-117.7492 726.9618,-105.8316 715,-95 710.9161,-91.302 706.6769,-87.475 702.4154,-83.6362"/>
<polygon fill="#000000" stroke="#000000" points="704.5244,-80.8256 694.7494,-76.7389 699.8424,-86.0294 704.5244,-80.8256"/>
<text text-anchor="middle" x="764.5" y="-98.8" font-family="Times,serif" font-size="14.00" fill="#000000">ACTED_IN</text>
</g>
<!-- n271&#45;&gt;n267 -->
<g id="edge5" class="edge">
<title>n271&#45;&gt;n267</title>
<path fill="none" stroke="#000000" d="M812.3357,-128.3004C822.3325,-117.4923 833.913,-105.4424 845,-95 849.0503,-91.1852 853.317,-87.3178 857.6576,-83.4894"/>
<polygon fill="#000000" stroke="#000000" points="860.2656,-85.86 865.5198,-76.6598 855.6751,-80.5754 860.2656,-85.86"/>
<text text-anchor="middle" x="878.5" y="-98.8" font-family="Times,serif" font-size="14.00" fill="#000000">ACTED_IN</text>
</g>
</g>
</svg>
